<?xml version="1.0" encoding="UTF-8" standalone="no"?><!DOCTYPE svg PUBLIC "-//W3C//DTD SVG 1.1//EN" "http://www.w3.org/Graphics/SVG/1.1/DTD/svg11.dtd"><svg width="100%" height="100%" viewBox="0 0 6250 1892" version="1.1" xmlns="http://www.w3.org/2000/svg" xmlns:xlink="http://www.w3.org/1999/xlink" xml:space="preserve" xmlns:serif="http://www.serif.com/" style="fill-rule:evenodd;clip-rule:evenodd;stroke-linejoin:round;stroke-miterlimit:2;"><g><g><g><path d="M409.544,100.976l-81.567,251.916l930.52,-0.685l-81.738,-251.917l-767.215,0.686Z" style="fill-rule:nonzero;"/></g></g><g><g><path d="M1507.5,99.948l-264.771,0.342l288.081,884.947l214.038,-155.781l-237.177,-729.508l-0.171,-0Z" style="fill-rule:nonzero;"/></g></g><g><g><path d="M1011.96,1440.31l214.381,155.438l620.192,-451.043l-82.098,-251.899l-752.304,547.333l-0.171,0.171Z" style="fill-rule:nonzero;"/></g></g><g><g><path d="M338.158,1340.23l-0,0.343l620.69,450.186l214.038,-155.781l-752.819,-546.647l-81.909,251.899Z" style="fill-rule:nonzero;"/></g></g><g><g><path d="M307.581,415.606l-236.645,729.508l214.381,155.438l287.035,-885.118l-264.771,0.343l-0,-0.171Z" style="fill-rule:nonzero;"/></g></g><g><g><path d="M638.665,415.263l-81.91,251.916l473.136,-0.342l-81.91,-251.574l-309.488,-0l0.172,-0Z" style="fill-rule:nonzero;"/></g></g><g><g><path d="M1013.97,414.92l146.68,449.843l214.038,-155.78l-95.621,-294.063l-265.097,0Z" style="fill-rule:nonzero;"/></g></g><g><g><path d="M1012.6,1050.52l214.381,155.25l250.185,-181.644l0,-0.343l-82.081,-251.899l-382.485,278.636Z" style="fill-rule:nonzero;"/></g></g><g><g><path d="M707.96,1219.59l250.545,182.005l214.038,-155.781l-383.171,-277.609l-81.412,251.385Z" style="fill-rule:nonzero;"/></g></g><g><g><path d="M536.359,730.064l-95.45,294.405l214.381,155.438l145.84,-449.843l-264.771,0Z" style="fill-rule:nonzero;"/></g></g><g><g><path d="M2601.72,510.356l2.156,-0l65.865,343.331l-131.719,-0l63.698,-343.331Zm-107.968,-140.345l-196.484,770.845l187.848,-0l26.986,-146.825l184.626,0l28.064,146.825l187.848,-0l-192.172,-770.845l-226.716,0Z" style="fill-rule:nonzero;"/></g></g><g><g><path d="M3341.47,799.703c41.742,-18.721 75.568,-47.145 101.487,-85.294c26.627,-38.149 39.958,-86.372 39.958,-144.668c-0,-58.296 -16.554,-106.159 -49.672,-143.59c-33.107,-37.43 -85.653,-56.14 -157.628,-56.14l-304.452,0l0,770.845l181.38,-0l0,-316.323l9.703,0l151.148,316.323l204.054,-0l-175.978,-341.153Zm-61.531,-133.876c-14.397,19.428 -38.16,29.154 -71.267,29.154l-56.129,-0l0,-197.574l55.062,0c34.544,0 58.656,8.277 72.334,24.83c14.397,16.554 21.596,40.665 21.596,72.334c-0,27.346 -7.199,51.098 -21.596,71.256Z" style="fill-rule:nonzero;"/></g></g><g><g><path d="M3944.14,370.011l-169.498,304.452l-2.156,0l-0,-304.452l-181.38,0l-0,770.845l181.38,-0l-0,-215.913l48.593,-74.502l139.266,290.415l204.043,-0l-226.728,-438.328l201.909,-332.517l-195.429,0Z" style="fill-rule:nonzero;"/></g></g><g><g><path d="M4537.1,370.011l0,288.258l-144.679,0l0,-288.258l-181.38,0l0,770.845l181.38,-0l0,-329.283l144.679,0l0,329.283l181.369,-0l-0,-770.845l-181.369,0Z" style="fill-rule:nonzero;"/></g></g><g><g><path d="M5081.45,510.356l2.157,-0l65.865,343.331l-131.72,-0l63.698,-343.331Zm-107.956,-140.345l-196.496,770.845l187.849,-0l26.986,-146.825l184.625,0l28.054,146.825l187.859,-0l-192.172,-770.845l-226.705,0Z" style="fill-rule:nonzero;"/></g></g><g><g><path d="M5910.84,370.011l-91.774,506.338l-2.167,0l-95.008,-506.338l-265.573,0l0,770.845l161.94,-0l0,-600.269l2.145,0l124.173,600.269l140.333,-0l117.693,-600.269l2.157,0l-0,600.269l168.408,-0l0,-770.845l-262.327,0Z" style="fill-rule:nonzero;"/></g></g></g></svg>